<mxfile host="app.diagrams.net" agent="Mozilla/5.0 (Windows NT 10.0; Win64; x64) AppleWebKit/537.36 (KHTML, like Gecko) Chrome/140.0.0.0 Safari/537.36" version="28.2.5">
  <diagram id="C5RBs43oDa-KdzZeNtuy" name="Page-1">
    <mxGraphModel dx="815" dy="425" grid="1" gridSize="10" guides="1" tooltips="1" connect="1" arrows="1" fold="1" page="1" pageScale="1" pageWidth="1169" pageHeight="1654" math="0" shadow="0">
      <root>
        <mxCell id="WIyWlLk6GJQsqaUBKTNV-0" />
        <mxCell id="WIyWlLk6GJQsqaUBKTNV-1" parent="WIyWlLk6GJQsqaUBKTNV-0" />
        <mxCell id="IPOrL1_Ixoh-NA5a-yQ6-0" value="" style="rounded=0;whiteSpace=wrap;html=1;gradientColor=none;fillColor=none;strokeColor=default;" parent="WIyWlLk6GJQsqaUBKTNV-1" vertex="1">
          <mxGeometry x="70" width="970" height="555" as="geometry" />
        </mxCell>
        <mxCell id="IPOrL1_Ixoh-NA5a-yQ6-1" value="Livraria Virtual" style="text;html=1;align=center;verticalAlign=middle;whiteSpace=wrap;rounded=0;" parent="WIyWlLk6GJQsqaUBKTNV-1" vertex="1">
          <mxGeometry x="900" y="520" width="90" height="30" as="geometry" />
        </mxCell>
        <mxCell id="1XrnnWkjrJHJ59UegSMV-0" value="Cibernauta" style="shape=umlActor;verticalLabelPosition=bottom;verticalAlign=top;html=1;outlineConnect=0;" parent="WIyWlLk6GJQsqaUBKTNV-1" vertex="1">
          <mxGeometry x="20" y="70" width="30" height="60" as="geometry" />
        </mxCell>
        <mxCell id="1XrnnWkjrJHJ59UegSMV-1" value="Consultar Livro" style="ellipse;whiteSpace=wrap;html=1;" parent="WIyWlLk6GJQsqaUBKTNV-1" vertex="1">
          <mxGeometry x="140" y="80" width="110" height="50" as="geometry" />
        </mxCell>
        <mxCell id="1XrnnWkjrJHJ59UegSMV-2" value="" style="endArrow=none;html=1;rounded=0;exitX=0;exitY=0.5;exitDx=0;exitDy=0;" parent="WIyWlLk6GJQsqaUBKTNV-1" source="1XrnnWkjrJHJ59UegSMV-1" edge="1">
          <mxGeometry width="50" height="50" relative="1" as="geometry">
            <mxPoint x="390" y="320" as="sourcePoint" />
            <mxPoint x="60" y="100" as="targetPoint" />
          </mxGeometry>
        </mxCell>
        <mxCell id="1XrnnWkjrJHJ59UegSMV-3" value="Inserir&amp;nbsp;&lt;div&gt;ComentÃ¡rio&lt;/div&gt;" style="ellipse;whiteSpace=wrap;html=1;" parent="WIyWlLk6GJQsqaUBKTNV-1" vertex="1">
          <mxGeometry x="390" y="80" width="110" height="50" as="geometry" />
        </mxCell>
        <mxCell id="1XrnnWkjrJHJ59UegSMV-6" value="&amp;lt;&amp;lt;extend&amp;gt;&amp;gt;" style="html=1;verticalAlign=bottom;endArrow=open;dashed=1;endSize=8;curved=0;rounded=0;entryX=1;entryY=0.5;entryDx=0;entryDy=0;exitX=0;exitY=0.5;exitDx=0;exitDy=0;" parent="WIyWlLk6GJQsqaUBKTNV-1" source="1XrnnWkjrJHJ59UegSMV-3" target="1XrnnWkjrJHJ59UegSMV-1" edge="1">
          <mxGeometry relative="1" as="geometry">
            <mxPoint x="450" y="300" as="sourcePoint" />
            <mxPoint x="370" y="300" as="targetPoint" />
          </mxGeometry>
        </mxCell>
        <mxCell id="1XrnnWkjrJHJ59UegSMV-7" value="&amp;lt;&amp;lt;include&amp;gt;&amp;gt;" style="html=1;verticalAlign=bottom;endArrow=open;dashed=1;endSize=8;curved=0;rounded=0;exitX=1;exitY=1;exitDx=0;exitDy=0;entryX=0.02;entryY=0.401;entryDx=0;entryDy=0;entryPerimeter=0;" parent="WIyWlLk6GJQsqaUBKTNV-1" source="1XrnnWkjrJHJ59UegSMV-1" target="1XrnnWkjrJHJ59UegSMV-8" edge="1">
          <mxGeometry relative="1" as="geometry">
            <mxPoint x="410" y="200" as="sourcePoint" />
            <mxPoint x="270" y="200" as="targetPoint" />
          </mxGeometry>
        </mxCell>
        <mxCell id="1XrnnWkjrJHJ59UegSMV-8" value="Aconselhar&amp;nbsp;&lt;div&gt;Livro&lt;/div&gt;" style="ellipse;whiteSpace=wrap;html=1;" parent="WIyWlLk6GJQsqaUBKTNV-1" vertex="1">
          <mxGeometry x="390" y="150" width="110" height="50" as="geometry" />
        </mxCell>
        <mxCell id="1XrnnWkjrJHJ59UegSMV-9" value="Efetuar Registo" style="ellipse;whiteSpace=wrap;html=1;" parent="WIyWlLk6GJQsqaUBKTNV-1" vertex="1">
          <mxGeometry x="140" y="140" width="110" height="50" as="geometry" />
        </mxCell>
        <mxCell id="1XrnnWkjrJHJ59UegSMV-10" value="" style="endArrow=none;html=1;rounded=0;exitX=0;exitY=0.5;exitDx=0;exitDy=0;exitPerimeter=0;" parent="WIyWlLk6GJQsqaUBKTNV-1" source="1XrnnWkjrJHJ59UegSMV-9" edge="1">
          <mxGeometry width="50" height="50" relative="1" as="geometry">
            <mxPoint x="200" y="104" as="sourcePoint" />
            <mxPoint x="60" y="100" as="targetPoint" />
          </mxGeometry>
        </mxCell>
        <mxCell id="1XrnnWkjrJHJ59UegSMV-11" value="Cliente" style="shape=umlActor;verticalLabelPosition=bottom;verticalAlign=top;html=1;outlineConnect=0;" parent="WIyWlLk6GJQsqaUBKTNV-1" vertex="1">
          <mxGeometry x="20" y="270" width="30" height="60" as="geometry" />
        </mxCell>
        <mxCell id="1XrnnWkjrJHJ59UegSMV-12" value="Adicionar Livro&lt;div&gt;Ao Carrinho&lt;/div&gt;" style="ellipse;whiteSpace=wrap;html=1;" parent="WIyWlLk6GJQsqaUBKTNV-1" vertex="1">
          <mxGeometry x="140" y="210" width="110" height="50" as="geometry" />
        </mxCell>
        <mxCell id="1XrnnWkjrJHJ59UegSMV-13" value="" style="endArrow=none;html=1;rounded=0;exitX=0;exitY=0.5;exitDx=0;exitDy=0;" parent="WIyWlLk6GJQsqaUBKTNV-1" source="1XrnnWkjrJHJ59UegSMV-12" edge="1">
          <mxGeometry width="50" height="50" relative="1" as="geometry">
            <mxPoint x="190" y="104" as="sourcePoint" />
            <mxPoint x="60" y="300" as="targetPoint" />
          </mxGeometry>
        </mxCell>
        <mxCell id="1XrnnWkjrJHJ59UegSMV-14" value="" style="endArrow=classic;html=1;rounded=0;" parent="WIyWlLk6GJQsqaUBKTNV-1" edge="1">
          <mxGeometry width="50" height="50" relative="1" as="geometry">
            <mxPoint x="35" y="260" as="sourcePoint" />
            <mxPoint x="35" y="160" as="targetPoint" />
          </mxGeometry>
        </mxCell>
        <mxCell id="1XrnnWkjrJHJ59UegSMV-16" value="Efetuar&amp;nbsp;&lt;div&gt;Encomenda&lt;/div&gt;" style="ellipse;whiteSpace=wrap;html=1;" parent="WIyWlLk6GJQsqaUBKTNV-1" vertex="1">
          <mxGeometry x="140" y="270" width="110" height="50" as="geometry" />
        </mxCell>
        <mxCell id="1XrnnWkjrJHJ59UegSMV-17" value="" style="endArrow=none;html=1;rounded=0;exitX=0;exitY=0.5;exitDx=0;exitDy=0;" parent="WIyWlLk6GJQsqaUBKTNV-1" source="1XrnnWkjrJHJ59UegSMV-16" edge="1">
          <mxGeometry width="50" height="50" relative="1" as="geometry">
            <mxPoint x="210" y="240" as="sourcePoint" />
            <mxPoint x="60" y="300" as="targetPoint" />
          </mxGeometry>
        </mxCell>
        <mxCell id="1XrnnWkjrJHJ59UegSMV-19" value="Efetuar&amp;nbsp;&lt;div&gt;Encomenda&lt;/div&gt;&lt;div&gt;Parcial&lt;/div&gt;" style="ellipse;whiteSpace=wrap;html=1;" parent="WIyWlLk6GJQsqaUBKTNV-1" vertex="1">
          <mxGeometry x="530" y="210" width="110" height="50" as="geometry" />
        </mxCell>
        <mxCell id="1XrnnWkjrJHJ59UegSMV-20" value="" style="html=1;verticalAlign=bottom;endArrow=block;endSize=6;curved=0;rounded=0;entryX=1;entryY=0.5;entryDx=0;entryDy=0;exitX=0;exitY=0.5;exitDx=0;exitDy=0;endFill=0;" parent="WIyWlLk6GJQsqaUBKTNV-1" source="1XrnnWkjrJHJ59UegSMV-19" target="1XrnnWkjrJHJ59UegSMV-16" edge="1">
          <mxGeometry relative="1" as="geometry">
            <mxPoint x="380" y="290" as="sourcePoint" />
            <mxPoint x="240" y="290" as="targetPoint" />
          </mxGeometry>
        </mxCell>
        <mxCell id="1XrnnWkjrJHJ59UegSMV-21" value="Visualizar&amp;nbsp;&lt;div&gt;Carrinho&lt;/div&gt;" style="ellipse;whiteSpace=wrap;html=1;" parent="WIyWlLk6GJQsqaUBKTNV-1" vertex="1">
          <mxGeometry x="140" y="330" width="110" height="50" as="geometry" />
        </mxCell>
        <mxCell id="1XrnnWkjrJHJ59UegSMV-22" value="" style="endArrow=none;html=1;rounded=0;exitX=0;exitY=0.5;exitDx=0;exitDy=0;" parent="WIyWlLk6GJQsqaUBKTNV-1" source="1XrnnWkjrJHJ59UegSMV-21" edge="1">
          <mxGeometry width="50" height="50" relative="1" as="geometry">
            <mxPoint x="180" y="305" as="sourcePoint" />
            <mxPoint x="60" y="300" as="targetPoint" />
          </mxGeometry>
        </mxCell>
        <mxCell id="1XrnnWkjrJHJ59UegSMV-25" value="Efetuar&amp;nbsp;&lt;div&gt;Encomenda&lt;/div&gt;&lt;div&gt;Total&lt;/div&gt;" style="ellipse;whiteSpace=wrap;html=1;" parent="WIyWlLk6GJQsqaUBKTNV-1" vertex="1">
          <mxGeometry x="530" y="330" width="110" height="50" as="geometry" />
        </mxCell>
        <mxCell id="1XrnnWkjrJHJ59UegSMV-26" value="" style="html=1;verticalAlign=bottom;endArrow=block;curved=0;rounded=0;exitX=0;exitY=0.5;exitDx=0;exitDy=0;endFill=0;" parent="WIyWlLk6GJQsqaUBKTNV-1" source="1XrnnWkjrJHJ59UegSMV-25" target="1XrnnWkjrJHJ59UegSMV-16" edge="1">
          <mxGeometry relative="1" as="geometry">
            <mxPoint x="380" y="350" as="sourcePoint" />
            <mxPoint x="250" y="300" as="targetPoint" />
          </mxGeometry>
        </mxCell>
        <mxCell id="oDLeB5v_LngY6H9NhrEW-2" value="&amp;lt;&amp;lt;include&amp;gt;&amp;gt;" style="html=1;verticalAlign=bottom;endArrow=open;dashed=1;endSize=8;curved=0;rounded=0;exitX=1;exitY=0.5;exitDx=0;exitDy=0;entryX=0.359;entryY=1.02;entryDx=0;entryDy=0;entryPerimeter=0;" edge="1" parent="WIyWlLk6GJQsqaUBKTNV-1" source="1XrnnWkjrJHJ59UegSMV-21" target="1XrnnWkjrJHJ59UegSMV-8">
          <mxGeometry x="0.4676" y="3" relative="1" as="geometry">
            <mxPoint x="280" y="200" as="sourcePoint" />
            <mxPoint x="438" y="247" as="targetPoint" />
            <Array as="points">
              <mxPoint x="330" y="340" />
              <mxPoint x="370" y="330" />
              <mxPoint x="400" y="300" />
              <mxPoint x="420" y="250" />
            </Array>
            <mxPoint as="offset" />
          </mxGeometry>
        </mxCell>
        <mxCell id="oDLeB5v_LngY6H9NhrEW-3" value="Anular&lt;div&gt;Encomenda&lt;/div&gt;" style="ellipse;whiteSpace=wrap;html=1;" vertex="1" parent="WIyWlLk6GJQsqaUBKTNV-1">
          <mxGeometry x="140" y="390" width="110" height="50" as="geometry" />
        </mxCell>
        <mxCell id="oDLeB5v_LngY6H9NhrEW-4" value="Departamento de&lt;div&gt;Aprovisionamento&lt;/div&gt;" style="shape=umlActor;verticalLabelPosition=bottom;verticalAlign=top;html=1;outlineConnect=0;" vertex="1" parent="WIyWlLk6GJQsqaUBKTNV-1">
          <mxGeometry x="1080" y="310" width="30" height="60" as="geometry" />
        </mxCell>
        <mxCell id="oDLeB5v_LngY6H9NhrEW-5" value="" style="endArrow=open;html=1;rounded=0;exitX=1;exitY=0.5;exitDx=0;exitDy=0;endFill=0;" edge="1" parent="WIyWlLk6GJQsqaUBKTNV-1" source="oDLeB5v_LngY6H9NhrEW-3" target="oDLeB5v_LngY6H9NhrEW-4">
          <mxGeometry width="50" height="50" relative="1" as="geometry">
            <mxPoint x="360" y="330" as="sourcePoint" />
            <mxPoint x="410" y="280" as="targetPoint" />
            <Array as="points">
              <mxPoint x="590" y="410" />
            </Array>
          </mxGeometry>
        </mxCell>
        <mxCell id="oDLeB5v_LngY6H9NhrEW-6" value="" style="endArrow=none;html=1;rounded=0;exitX=0.958;exitY=0.653;exitDx=0;exitDy=0;endFill=0;exitPerimeter=0;" edge="1" parent="WIyWlLk6GJQsqaUBKTNV-1" source="1XrnnWkjrJHJ59UegSMV-16">
          <mxGeometry width="50" height="50" relative="1" as="geometry">
            <mxPoint x="360" y="330" as="sourcePoint" />
            <mxPoint x="1020" y="350" as="targetPoint" />
            <Array as="points">
              <mxPoint x="590" y="290" />
            </Array>
          </mxGeometry>
        </mxCell>
        <mxCell id="oDLeB5v_LngY6H9NhrEW-7" value="Validar&amp;nbsp;&lt;div&gt;Acesso&lt;/div&gt;" style="ellipse;whiteSpace=wrap;html=1;" vertex="1" parent="WIyWlLk6GJQsqaUBKTNV-1">
          <mxGeometry x="410" y="430" width="110" height="50" as="geometry" />
        </mxCell>
        <mxCell id="oDLeB5v_LngY6H9NhrEW-8" value="" style="html=1;verticalAlign=bottom;endArrow=open;dashed=1;endSize=8;curved=0;rounded=0;exitX=0.798;exitY=0.92;exitDx=0;exitDy=0;entryX=-0.005;entryY=0.32;entryDx=0;entryDy=0;entryPerimeter=0;exitPerimeter=0;" edge="1" parent="WIyWlLk6GJQsqaUBKTNV-1" source="1XrnnWkjrJHJ59UegSMV-16" target="oDLeB5v_LngY6H9NhrEW-7">
          <mxGeometry x="0.4676" y="3" relative="1" as="geometry">
            <mxPoint x="340" y="424" as="sourcePoint" />
            <mxPoint x="519" y="270" as="targetPoint" />
            <mxPoint as="offset" />
          </mxGeometry>
        </mxCell>
        <mxCell id="oDLeB5v_LngY6H9NhrEW-9" value="&amp;lt;&amp;lt;include&amp;gt;&amp;gt;" style="html=1;verticalAlign=bottom;endArrow=none;dashed=1;endSize=8;curved=0;rounded=0;exitX=1;exitY=0.5;exitDx=0;exitDy=0;endFill=0;" edge="1" parent="WIyWlLk6GJQsqaUBKTNV-1" source="1XrnnWkjrJHJ59UegSMV-21">
          <mxGeometry x="0.4676" y="3" relative="1" as="geometry">
            <mxPoint x="310" y="380" as="sourcePoint" />
            <mxPoint x="390" y="430" as="targetPoint" />
            <mxPoint as="offset" />
          </mxGeometry>
        </mxCell>
        <mxCell id="oDLeB5v_LngY6H9NhrEW-10" value="" style="html=1;verticalAlign=bottom;endArrow=none;dashed=1;endSize=8;curved=0;rounded=0;exitX=1;exitY=0.5;exitDx=0;exitDy=0;endFill=0;" edge="1" parent="WIyWlLk6GJQsqaUBKTNV-1" source="1XrnnWkjrJHJ59UegSMV-12">
          <mxGeometry x="0.4676" y="3" relative="1" as="geometry">
            <mxPoint x="270" y="340" as="sourcePoint" />
            <mxPoint x="390" y="430" as="targetPoint" />
            <mxPoint as="offset" />
          </mxGeometry>
        </mxCell>
        <mxCell id="oDLeB5v_LngY6H9NhrEW-14" value="Enviar&lt;div&gt;Encomenda&lt;/div&gt;" style="ellipse;whiteSpace=wrap;html=1;" vertex="1" parent="WIyWlLk6GJQsqaUBKTNV-1">
          <mxGeometry x="710" y="210" width="110" height="50" as="geometry" />
        </mxCell>
        <mxCell id="oDLeB5v_LngY6H9NhrEW-15" value="GestÃ£o de&lt;div&gt;Stock&lt;/div&gt;" style="ellipse;whiteSpace=wrap;html=1;" vertex="1" parent="WIyWlLk6GJQsqaUBKTNV-1">
          <mxGeometry x="710" y="330" width="110" height="50" as="geometry" />
        </mxCell>
        <mxCell id="oDLeB5v_LngY6H9NhrEW-17" value="&amp;lt;&amp;lt;include&amp;gt;&amp;gt;" style="html=1;verticalAlign=bottom;endArrow=open;dashed=1;endSize=8;curved=0;rounded=0;exitX=0.209;exitY=0.94;exitDx=0;exitDy=0;endFill=0;exitPerimeter=0;entryX=1;entryY=0.5;entryDx=0;entryDy=0;" edge="1" parent="WIyWlLk6GJQsqaUBKTNV-1" source="oDLeB5v_LngY6H9NhrEW-15" target="oDLeB5v_LngY6H9NhrEW-7">
          <mxGeometry x="0.4676" y="3" relative="1" as="geometry">
            <mxPoint x="290" y="380" as="sourcePoint" />
            <mxPoint x="430" y="455" as="targetPoint" />
            <mxPoint as="offset" />
            <Array as="points">
              <mxPoint x="700" y="410" />
              <mxPoint x="650" y="430" />
              <mxPoint x="590" y="450" />
            </Array>
          </mxGeometry>
        </mxCell>
        <mxCell id="oDLeB5v_LngY6H9NhrEW-18" value="" style="html=1;verticalAlign=bottom;endArrow=none;dashed=1;endSize=8;curved=0;rounded=0;exitX=0.964;exitY=0.8;exitDx=0;exitDy=0;endFill=0;exitPerimeter=0;" edge="1" parent="WIyWlLk6GJQsqaUBKTNV-1" source="oDLeB5v_LngY6H9NhrEW-3">
          <mxGeometry x="0.4676" y="3" relative="1" as="geometry">
            <mxPoint x="290" y="380" as="sourcePoint" />
            <mxPoint x="390" y="430" as="targetPoint" />
            <mxPoint as="offset" />
          </mxGeometry>
        </mxCell>
        <mxCell id="oDLeB5v_LngY6H9NhrEW-20" value="&amp;lt;&amp;lt;include&amp;gt;&amp;gt;" style="html=1;verticalAlign=bottom;endArrow=open;dashed=1;endSize=8;curved=0;rounded=0;endFill=0;entryX=0.779;entryY=0.08;entryDx=0;entryDy=0;entryPerimeter=0;" edge="1" parent="WIyWlLk6GJQsqaUBKTNV-1" source="oDLeB5v_LngY6H9NhrEW-14" target="oDLeB5v_LngY6H9NhrEW-7">
          <mxGeometry x="0.7266" y="3" relative="1" as="geometry">
            <mxPoint x="280" y="370" as="sourcePoint" />
            <mxPoint x="420" y="445" as="targetPoint" />
            <mxPoint as="offset" />
            <Array as="points">
              <mxPoint x="710" y="320" />
              <mxPoint x="650" y="380" />
              <mxPoint x="590" y="420" />
            </Array>
          </mxGeometry>
        </mxCell>
        <mxCell id="oDLeB5v_LngY6H9NhrEW-21" value="Enviar&lt;div&gt;Email&lt;/div&gt;" style="ellipse;whiteSpace=wrap;html=1;" vertex="1" parent="WIyWlLk6GJQsqaUBKTNV-1">
          <mxGeometry x="630" y="170" width="70" height="30" as="geometry" />
        </mxCell>
        <mxCell id="oDLeB5v_LngY6H9NhrEW-22" value="Emitir&lt;div&gt;Fatura&lt;/div&gt;" style="ellipse;whiteSpace=wrap;html=1;fontSize=10;" vertex="1" parent="WIyWlLk6GJQsqaUBKTNV-1">
          <mxGeometry x="730" y="130" width="70" height="30" as="geometry" />
        </mxCell>
        <mxCell id="oDLeB5v_LngY6H9NhrEW-23" value="&lt;font&gt;Dar Ordem&lt;/font&gt;&lt;div&gt;&lt;font&gt;Pagamento&lt;/font&gt;&lt;/div&gt;" style="ellipse;whiteSpace=wrap;html=1;fontSize=9;" vertex="1" parent="WIyWlLk6GJQsqaUBKTNV-1">
          <mxGeometry x="820" y="160" width="70" height="30" as="geometry" />
        </mxCell>
        <mxCell id="oDLeB5v_LngY6H9NhrEW-24" value="&amp;lt;&amp;lt;include&amp;gt;&amp;gt;" style="html=1;verticalAlign=bottom;endArrow=open;dashed=1;endSize=8;curved=0;rounded=0;entryX=1;entryY=1;entryDx=0;entryDy=0;" edge="1" parent="WIyWlLk6GJQsqaUBKTNV-1" source="oDLeB5v_LngY6H9NhrEW-14" target="oDLeB5v_LngY6H9NhrEW-21">
          <mxGeometry relative="1" as="geometry">
            <mxPoint x="350" y="150" as="sourcePoint" />
            <mxPoint x="508" y="197" as="targetPoint" />
          </mxGeometry>
        </mxCell>
        <mxCell id="oDLeB5v_LngY6H9NhrEW-25" value="&amp;lt;&amp;lt;include&amp;gt;&amp;gt;" style="html=1;verticalAlign=bottom;endArrow=open;dashed=1;endSize=8;curved=0;rounded=0;exitX=0.739;exitY=0.089;exitDx=0;exitDy=0;entryX=0.439;entryY=1.014;entryDx=0;entryDy=0;entryPerimeter=0;exitPerimeter=0;" edge="1" parent="WIyWlLk6GJQsqaUBKTNV-1" source="oDLeB5v_LngY6H9NhrEW-14" target="oDLeB5v_LngY6H9NhrEW-23">
          <mxGeometry relative="1" as="geometry">
            <mxPoint x="710" y="200" as="sourcePoint" />
            <mxPoint x="868" y="247" as="targetPoint" />
          </mxGeometry>
        </mxCell>
        <mxCell id="oDLeB5v_LngY6H9NhrEW-26" value="&amp;lt;&amp;lt;include&amp;gt;&amp;gt;" style="html=1;verticalAlign=bottom;endArrow=open;dashed=1;endSize=8;curved=0;rounded=0;exitX=0.365;exitY=0.02;exitDx=0;exitDy=0;entryX=0.5;entryY=1;entryDx=0;entryDy=0;exitPerimeter=0;" edge="1" parent="WIyWlLk6GJQsqaUBKTNV-1" source="oDLeB5v_LngY6H9NhrEW-14" target="oDLeB5v_LngY6H9NhrEW-22">
          <mxGeometry relative="1" as="geometry">
            <mxPoint x="780" y="210" as="sourcePoint" />
            <mxPoint x="938" y="257" as="targetPoint" />
          </mxGeometry>
        </mxCell>
        <mxCell id="oDLeB5v_LngY6H9NhrEW-27" value="Inserir&lt;div&gt;Livro&lt;/div&gt;" style="ellipse;whiteSpace=wrap;html=1;" vertex="1" parent="WIyWlLk6GJQsqaUBKTNV-1">
          <mxGeometry x="830" y="40" width="110" height="50" as="geometry" />
        </mxCell>
        <mxCell id="oDLeB5v_LngY6H9NhrEW-29" value="" style="html=1;verticalAlign=bottom;endArrow=none;dashed=1;endSize=8;curved=0;rounded=0;endFill=0;" edge="1" parent="WIyWlLk6GJQsqaUBKTNV-1" source="oDLeB5v_LngY6H9NhrEW-27">
          <mxGeometry relative="1" as="geometry">
            <mxPoint x="850" y="254" as="sourcePoint" />
            <mxPoint x="700" y="330" as="targetPoint" />
            <Array as="points">
              <mxPoint x="940" y="150" />
              <mxPoint x="930" y="230" />
              <mxPoint x="850" y="300" />
            </Array>
          </mxGeometry>
        </mxCell>
        <mxCell id="oDLeB5v_LngY6H9NhrEW-30" value="" style="endArrow=none;html=1;rounded=0;exitX=1;exitY=0.5;exitDx=0;exitDy=0;" edge="1" parent="WIyWlLk6GJQsqaUBKTNV-1" source="oDLeB5v_LngY6H9NhrEW-15" target="oDLeB5v_LngY6H9NhrEW-4">
          <mxGeometry width="50" height="50" relative="1" as="geometry">
            <mxPoint x="630" y="310" as="sourcePoint" />
            <mxPoint x="1080" y="340" as="targetPoint" />
            <Array as="points">
              <mxPoint x="970" y="310" />
            </Array>
          </mxGeometry>
        </mxCell>
        <mxCell id="oDLeB5v_LngY6H9NhrEW-31" value="" style="endArrow=none;html=1;rounded=0;entryX=0.931;entryY=0.671;entryDx=0;entryDy=0;entryPerimeter=0;" edge="1" parent="WIyWlLk6GJQsqaUBKTNV-1" source="oDLeB5v_LngY6H9NhrEW-4" target="oDLeB5v_LngY6H9NhrEW-14">
          <mxGeometry width="50" height="50" relative="1" as="geometry">
            <mxPoint x="970" y="310" as="sourcePoint" />
            <mxPoint x="840" y="300" as="targetPoint" />
          </mxGeometry>
        </mxCell>
        <mxCell id="oDLeB5v_LngY6H9NhrEW-32" value="Terminal De&lt;div&gt;Credito&lt;/div&gt;" style="shape=umlActor;verticalLabelPosition=bottom;verticalAlign=top;html=1;outlineConnect=0;" vertex="1" parent="WIyWlLk6GJQsqaUBKTNV-1">
          <mxGeometry x="1080" y="190" width="30" height="60" as="geometry" />
        </mxCell>
        <mxCell id="oDLeB5v_LngY6H9NhrEW-33" value="" style="endArrow=open;html=1;rounded=0;exitX=1;exitY=0.5;exitDx=0;exitDy=0;endFill=0;" edge="1" parent="WIyWlLk6GJQsqaUBKTNV-1" source="oDLeB5v_LngY6H9NhrEW-14" target="oDLeB5v_LngY6H9NhrEW-32">
          <mxGeometry width="50" height="50" relative="1" as="geometry">
            <mxPoint x="790" y="260" as="sourcePoint" />
            <mxPoint x="840" y="210" as="targetPoint" />
          </mxGeometry>
        </mxCell>
        <mxCell id="oDLeB5v_LngY6H9NhrEW-34" value="Departamento&amp;nbsp;&lt;div&gt;Pesquisa&lt;/div&gt;&lt;div&gt;Mercado&lt;/div&gt;" style="shape=umlActor;verticalLabelPosition=bottom;verticalAlign=top;html=1;outlineConnect=0;" vertex="1" parent="WIyWlLk6GJQsqaUBKTNV-1">
          <mxGeometry x="1080" y="60" width="30" height="60" as="geometry" />
        </mxCell>
        <mxCell id="oDLeB5v_LngY6H9NhrEW-35" value="" style="endArrow=none;html=1;rounded=0;entryX=1;entryY=0.5;entryDx=0;entryDy=0;" edge="1" parent="WIyWlLk6GJQsqaUBKTNV-1" source="oDLeB5v_LngY6H9NhrEW-34" target="oDLeB5v_LngY6H9NhrEW-27">
          <mxGeometry width="50" height="50" relative="1" as="geometry">
            <mxPoint x="790" y="160" as="sourcePoint" />
            <mxPoint x="840" y="110" as="targetPoint" />
          </mxGeometry>
        </mxCell>
      </root>
    </mxGraphModel>
  </diagram>
</mxfile>
